<?xml version="1.0" encoding="utf-8"?>
<!-- Generator: Adobe Illustrator 24.0.1, SVG Export Plug-In . SVG Version: 6.00 Build 0)  -->
<svg version="1.1" xmlns="http://www.w3.org/2000/svg" xmlns:xlink="http://www.w3.org/1999/xlink" x="0px" y="0px" width="212.3px"
	 height="185.4px" viewBox="0 0 212.3 185.4" style="enable-background:new 0 0 212.3 185.4;" xml:space="preserve">
<style type="text/css">
	.st0{display:none;fill:#043A56;}
	.st1{fill:#FFFFFF;}
	.st2{clip-path:url(#SVGID_2_);fill:#FFFFFF;}
</style>
<g id="Layer_2">
	<rect x="-44.1" y="-57.5" class="st0" width="300.5" height="300.5"/>
	<circle class="st0" cx="106.2" cy="92.7" r="134"/>
	<g>
		<path class="st1" d="M11.4,160.4h3.1c1.9,0,3.1,1,3.1,2.7v0c0,1.8-1.5,2.7-3.3,2.7h-2v3h-0.9V160.4z M14.4,165
			c1.4,0,2.3-0.7,2.3-1.8v0c0-1.2-0.9-1.8-2.3-1.8h-2.1v3.7H14.4z"/>
		<path class="st1" d="M18.6,167L18.6,167c0-1.4,1.1-2.1,2.7-2.1c0.8,0,1.3,0.1,1.9,0.3V165c0-1.1-0.7-1.7-1.8-1.7
			c-0.7,0-1.3,0.2-1.9,0.4l-0.3-0.8c0.7-0.3,1.3-0.5,2.3-0.5c0.9,0,1.6,0.2,2,0.7c0.4,0.4,0.6,1,0.6,1.8v3.8h-0.9v-0.9
			c-0.4,0.6-1.1,1.1-2.2,1.1C19.8,168.9,18.6,168.3,18.6,167z M23.2,166.5v-0.6c-0.5-0.1-1.1-0.3-1.8-0.3c-1.2,0-1.8,0.5-1.8,1.2v0
			c0,0.8,0.7,1.2,1.6,1.2C22.3,168.2,23.2,167.5,23.2,166.5z"/>
		<path class="st1" d="M26,162.6H27v1.6c0.5-1,1.4-1.8,2.5-1.7v1h-0.1c-1.4,0-2.5,1-2.5,2.8v2.5H26V162.6z"/>
		<path class="st1" d="M31.2,167.2v-3.7h-0.9v-0.8h0.9v-1.9h0.9v1.9h2v0.8h-2v3.6c0,0.8,0.4,1,1,1c0.3,0,0.6-0.1,0.9-0.2v0.8
			c-0.3,0.2-0.7,0.3-1.1,0.3C32,168.9,31.2,168.4,31.2,167.2z"/>
		<path class="st1" d="M39,165.7L39,165.7c0-1.8,1.4-3.3,3.2-3.3c1.9,0,3.2,1.5,3.2,3.2v0c0,1.8-1.4,3.2-3.3,3.2
			C40.3,168.9,39,167.5,39,165.7z M44.5,165.7L44.5,165.7c0-1.4-1-2.4-2.3-2.4c-1.3,0-2.3,1.1-2.3,2.4v0c0,1.3,1,2.4,2.3,2.4
			C43.6,168.1,44.5,167,44.5,165.7z"/>
		<path class="st1" d="M47.5,163.4h-0.9v-0.8h0.9v-0.5c0-0.7,0.2-1.2,0.5-1.6c0.3-0.3,0.8-0.5,1.3-0.5c0.4,0,0.7,0,1,0.2v0.8
			c-0.3-0.1-0.6-0.2-0.9-0.2c-0.7,0-1.1,0.4-1.1,1.3v0.5h2v0.8h-2v5.4h-0.9V163.4z"/>
		<path class="st1" d="M55.4,167.2v-3.7h-0.9v-0.8h0.9v-1.9h0.9v1.9h2v0.8h-2v3.6c0,0.8,0.4,1,1,1c0.3,0,0.6-0.1,0.9-0.2v0.8
			c-0.3,0.2-0.7,0.3-1.1,0.3C56.2,168.9,55.4,168.4,55.4,167.2z"/>
		<path class="st1" d="M60,160h0.9v3.6c0.4-0.7,1.1-1.2,2.1-1.2c1.5,0,2.4,1,2.4,2.5v3.9h-0.9v-3.6c0-1.2-0.6-1.9-1.7-1.9
			c-1.1,0-1.9,0.8-1.9,1.9v3.5H60V160z"/>
		<path class="st1" d="M70.1,168.1c0.9,0,1.5-0.3,2-0.9l0.6,0.5c-0.6,0.7-1.4,1.2-2.6,1.2c-1.7,0-3.1-1.3-3.1-3.2
			c0-1.8,1.3-3.2,3-3.2c1.8,0,2.9,1.5,2.9,3.3c0,0.1,0,0.2,0,0.3h-4.9C68,167.4,69,168.1,70.1,168.1z M71.9,165.3
			c-0.1-1.1-0.8-2.1-2-2.1c-1.1,0-1.9,0.9-2,2.1H71.9z"/>
		<path class="st1" d="M77.8,164.6L77.8,164.6c0-2.4,1.8-4.4,4.2-4.4c1.5,0,2.4,0.5,3.3,1.3l-0.6,0.7c-0.7-0.7-1.5-1.2-2.6-1.2
			c-1.9,0-3.3,1.5-3.3,3.4v0c0,1.9,1.4,3.5,3.3,3.5c1.2,0,1.9-0.4,2.7-1.2l0.6,0.6c-0.9,0.9-1.8,1.5-3.4,1.5
			C79.6,168.9,77.8,167,77.8,164.6z"/>
		<path class="st1" d="M86.9,160.2H88v1h-1.1V160.2z M87,162.6h0.9v6.2H87V162.6z"/>
		<path class="st1" d="M90.4,167.2v-3.7h-0.9v-0.8h0.9v-1.9h0.9v1.9h2v0.8h-2v3.6c0,0.8,0.4,1,1,1c0.3,0,0.6-0.1,0.9-0.2v0.8
			c-0.3,0.2-0.7,0.3-1.1,0.3C91.1,168.9,90.4,168.4,90.4,167.2z"/>
		<path class="st1" d="M94.6,170.4l0.3-0.7c0.3,0.2,0.6,0.2,1,0.2c0.6,0,0.9-0.3,1.3-1.2l-2.8-6.2h1l2.3,5.2l2-5.2h1l-2.6,6.4
			c-0.5,1.3-1.1,1.8-2.1,1.8C95.4,170.8,95,170.6,94.6,170.4z"/>
		<path class="st1" d="M105.8,160.4h6.1v0.9h-5.1v2.9h4.6v0.9h-4.6v2.9h5.2v0.9h-6.1V160.4z"/>
		<path class="st1" d="M113.2,165.7L113.2,165.7c0-2.1,1.5-3.2,3-3.2c1.2,0,1.9,0.6,2.4,1.3V160h0.9v8.8h-0.9v-1.2
			c-0.5,0.7-1.2,1.4-2.4,1.4C114.6,168.9,113.2,167.8,113.2,165.7z M118.5,165.7L118.5,165.7c0-1.5-1.1-2.4-2.2-2.4
			c-1.2,0-2.2,0.9-2.2,2.4v0c0,1.5,1,2.4,2.2,2.4C117.4,168.1,118.5,167.1,118.5,165.7z"/>
		<path class="st1" d="M121.4,166.4v-3.8h0.9v3.6c0,1.2,0.6,1.9,1.7,1.9c1.1,0,1.9-0.8,1.9-1.9v-3.5h0.9v6.2h-0.9v-1.1
			c-0.4,0.7-1.1,1.2-2.1,1.2C122.3,168.9,121.4,167.9,121.4,166.4z"/>
		<path class="st1" d="M128.5,165.7L128.5,165.7c0-1.8,1.4-3.3,3.2-3.3c1.2,0,1.9,0.5,2.5,1.1l-0.6,0.6c-0.5-0.5-1-0.9-1.9-0.9
			c-1.3,0-2.2,1.1-2.2,2.4v0c0,1.3,1,2.4,2.3,2.4c0.8,0,1.4-0.4,1.9-0.9l0.6,0.6c-0.6,0.7-1.4,1.2-2.5,1.2
			C129.9,168.9,128.5,167.5,128.5,165.7z"/>
		<path class="st1" d="M135.3,167L135.3,167c0-1.4,1.1-2.1,2.7-2.1c0.8,0,1.3,0.1,1.9,0.3V165c0-1.1-0.7-1.7-1.8-1.7
			c-0.7,0-1.3,0.2-1.9,0.4l-0.3-0.8c0.7-0.3,1.3-0.5,2.3-0.5c0.9,0,1.6,0.2,2,0.7c0.4,0.4,0.6,1,0.6,1.8v3.8h-0.9v-0.9
			c-0.4,0.6-1.1,1.1-2.2,1.1C136.4,168.9,135.3,168.3,135.3,167z M139.8,166.5v-0.6c-0.5-0.1-1.1-0.3-1.8-0.3
			c-1.2,0-1.8,0.5-1.8,1.2v0c0,0.8,0.7,1.2,1.6,1.2C138.9,168.2,139.8,167.5,139.8,166.5z"/>
		<path class="st1" d="M142.9,167.2v-3.7h-0.9v-0.8h0.9v-1.9h0.9v1.9h2v0.8h-2v3.6c0,0.8,0.4,1,1,1c0.3,0,0.6-0.1,0.9-0.2v0.8
			c-0.3,0.2-0.7,0.3-1.1,0.3C143.7,168.9,142.9,168.4,142.9,167.2z"/>
		<path class="st1" d="M147.5,160.2h1.1v1h-1.1V160.2z M147.6,162.6h0.9v6.2h-0.9V162.6z"/>
		<path class="st1" d="M150.2,165.7L150.2,165.7c0-1.8,1.4-3.3,3.2-3.3c1.9,0,3.2,1.5,3.2,3.2v0c0,1.8-1.4,3.2-3.2,3.2
			C151.6,168.9,150.2,167.5,150.2,165.7z M155.8,165.7L155.8,165.7c0-1.4-1-2.4-2.3-2.4c-1.3,0-2.3,1.1-2.3,2.4v0
			c0,1.3,1,2.4,2.3,2.4C154.8,168.1,155.8,167,155.8,165.7z"/>
		<path class="st1" d="M158.4,162.6h0.9v1.1c0.4-0.7,1.1-1.2,2.1-1.2c1.5,0,2.4,1,2.4,2.5v3.9h-0.9v-3.6c0-1.2-0.6-1.9-1.7-1.9
			c-1.1,0-1.9,0.8-1.9,1.9v3.5h-0.9V162.6z"/>
		<path class="st1" d="M169.2,164.6L169.2,164.6c0-2.3,1.7-4.4,4.2-4.4c1.4,0,2.3,0.4,3.1,1.1l-0.6,0.7c-0.6-0.6-1.4-1-2.6-1
			c-1.9,0-3.2,1.6-3.2,3.4v0c0,2,1.3,3.5,3.3,3.5c1,0,1.8-0.4,2.4-0.8v-2.1h-2.6v-0.9h3.5v3.3c-0.8,0.7-2,1.3-3.4,1.3
			C170.8,168.9,169.2,167,169.2,164.6z"/>
		<path class="st1" d="M178.8,162.6h0.9v1.6c0.5-1,1.4-1.8,2.5-1.7v1h-0.1c-1.4,0-2.5,1-2.5,2.8v2.5h-0.9V162.6z"/>
		<path class="st1" d="M183,165.7L183,165.7c0-1.8,1.4-3.3,3.2-3.3c1.9,0,3.2,1.5,3.2,3.2v0c0,1.8-1.4,3.2-3.2,3.2
			C184.3,168.9,183,167.5,183,165.7z M188.5,165.7L188.5,165.7c0-1.4-1-2.4-2.3-2.4c-1.3,0-2.3,1.1-2.3,2.4v0c0,1.3,1,2.4,2.3,2.4
			C187.6,168.1,188.5,167,188.5,165.7z"/>
		<path class="st1" d="M191,166.4v-3.8h0.9v3.6c0,1.2,0.6,1.9,1.7,1.9c1.1,0,1.9-0.8,1.9-1.9v-3.5h0.9v6.2h-0.9v-1.1
			c-0.4,0.7-1.1,1.2-2.1,1.2C191.9,168.9,191,167.9,191,166.4z"/>
		<path class="st1" d="M198.5,162.6h0.9v1.2c0.5-0.7,1.2-1.4,2.4-1.4c1.5,0,3,1.2,3,3.2v0c0,2-1.5,3.2-3,3.2c-1.2,0-1.9-0.6-2.4-1.3
			v3.1h-0.9V162.6z M203.8,165.7L203.8,165.7c0-1.5-1-2.4-2.2-2.4c-1.2,0-2.2,1-2.2,2.4v0c0,1.4,1.1,2.4,2.2,2.4
			C202.9,168.1,203.8,167.2,203.8,165.7z"/>
	</g>
</g>
<g id="City_Colleges">
	<g>
		<g>
			<defs>
				<rect id="SVGID_1_" x="-20.2" y="-41.3" width="250.5" height="250.5"/>
			</defs>
			<clipPath id="SVGID_2_">
				<use xlink:href="#SVGID_1_"  style="overflow:visible;"/>
			</clipPath>
			<path class="st2" d="M50,52.1c7.3,0,11.1,1.4,13.9,2.5l-0.2,14c-3.7-1.3-7-2.2-12-2.2c-8.1,0-12.6,3.7-12.6,16.9
				c0,13.3,4.6,16.9,12.6,16.9c5,0,8.3-0.9,12-2.2l0.2,14c-2.8,1.2-6.6,2.5-13.9,2.5c-18,0-26.6-9.4-26.6-31.3
				C23.4,61.6,32,52.1,50,52.1"/>
			<rect x="69.5" y="53.4" class="st2" width="15.7" height="59.9"/>
			<polygon class="st2" points="119.2,67.2 119.2,113.4 103.5,113.4 103.5,67.2 89.4,67.2 89.4,53.4 133.3,53.4 133.3,67.2 			"/>
			<polygon class="st2" points="160.7,76 169.8,53.4 187.4,53.4 168.4,90 168.6,113.4 152.9,113.4 153,90 134.1,53.4 151.6,53.4 			
				"/>
			<path class="st2" d="M65.6,122.9c2.5,0,4.2,0.5,5.3,1v1.8c-1.9-0.8-3.3-1.1-5.3-1.1c-4.5,0-6.1,3.8-6.1,8.8
				c0,4.9,1.6,8.8,6.1,8.8c2,0,3.4-0.3,5.3-1.1v1.8c-1.1,0.5-2.8,1-5.3,1c-6.1,0-8-4.7-8-10.5C57.6,127.5,59.5,122.9,65.6,122.9"/>
			<path class="st2" d="M79.8,143.8c-4.7,0-5.7-2.9-5.7-7.1c0-4.2,1.1-7.1,5.7-7.1c4.7,0,5.7,2.9,5.7,7.1
				C85.5,140.9,84.4,143.8,79.8,143.8 M79.8,131.3c-3.6,0-3.8,2.3-3.8,5.4c0,3.1,0.2,5.4,3.8,5.4c3.5,0,3.8-2.3,3.8-5.4
				C83.6,133.6,83.3,131.3,79.8,131.3"/>
			<path class="st2" d="M89.2,140.8v-17.7H91V141c0,1,0.3,1.2,1.1,1.2v1.5C90.2,143.8,89.2,143,89.2,140.8"/>
			<path class="st2" d="M95.7,140.8v-17.7h1.9V141c0,1,0.3,1.2,1.1,1.2v1.5C96.8,143.8,95.7,143,95.7,140.8"/>
			<path class="st2" d="M107.3,129.6c4.6,0,5.2,3.2,5.2,7.1v0.9h-9c0.1,2.4,0.7,4.5,3.8,4.5c2,0,3.2-0.2,4.5-0.8v1.6
				c-1.5,0.7-3.2,0.8-4.5,0.8c-4.6,0-5.7-3.2-5.7-7.1C101.6,132.8,102.7,129.6,107.3,129.6 M103.5,136h7.1c0-2.4-0.1-4.7-3.3-4.7
				C104.1,131.3,103.5,133.6,103.5,136"/>
			<path class="st2" d="M118.7,139.7c-0.3,0.3-0.5,0.7-0.5,1c0,0.7,0.3,1,1,1.1l4.6,0.5c2.6,0.3,3.7,1.3,3.7,3.6
				c0,3.3-3.3,4.6-7.1,4.6c-3.8,0-6.1-1.1-6.1-4.1c0-1.9,1.3-3.1,2.8-3.6v0c-0.5-0.4-0.9-0.9-0.9-1.8c0-0.8,0.5-1.4,1-1.8
				c-1.6-0.9-2.2-2.6-2.2-4.5c0-2.8,1.2-5.1,5.3-5.1c0.8,0,1.6,0.1,2.2,0.3h4.6v1l-2.3,0.7c0.6,0.9,0.8,2,0.8,3.2
				c0,2.8-1.2,5.1-5.3,5.1C119.9,139.9,119.3,139.8,118.7,139.7 M119.5,143.4c-1.8,0.4-3.3,1.3-3.3,3c0,2,1.5,2.6,4.3,2.6
				c2.7,0,5.3-0.7,5.3-3c0-1.4-0.7-1.9-2.3-2.1L119.5,143.4z M124.1,134.8c0-1.8-0.4-3.5-3.5-3.5c-3.2,0-3.5,1.7-3.5,3.5
				c0,1.8,0.4,3.5,3.5,3.5C123.7,138.2,124.1,136.6,124.1,134.8"/>
			<path class="st2" d="M135.1,129.6c4.6,0,5.2,3.2,5.2,7.1v0.9h-9c0.1,2.4,0.7,4.5,3.8,4.5c2,0,3.2-0.2,4.5-0.8v1.6
				c-1.5,0.7-3.2,0.8-4.5,0.8c-4.6,0-5.7-3.2-5.7-7.1C129.3,132.8,130.5,129.6,135.1,129.6 M131.3,136h7.1c0-2.4-0.1-4.7-3.3-4.7
				C131.9,131.3,131.3,133.6,131.3,136"/>
			<path class="st2" d="M148.1,135.7c3.9,0.4,4.8,1.7,4.8,3.9c0,2.1-1.3,4.2-5.5,4.2c-1.3,0-3.2-0.3-4.1-0.7v-1.6
				c0.8,0.3,2.2,0.6,4.1,0.6c2.8,0,3.6-1.2,3.6-2.5c0-1.3-0.4-2.1-3.1-2.3c-4-0.4-4.8-1.7-4.8-3.6c0-1.9,1.3-4,5.1-4
				c1.3,0,2.7,0.2,3.9,0.7v1.6c-1.1-0.4-2.1-0.6-3.9-0.6c-2.7,0-3.3,1-3.3,2.3C145,134.9,145.4,135.5,148.1,135.7"/>
			<polygon class="st2" points="91.6,10.7 71,53.1 71.3,53 93.1,11.2 			"/>
			<path class="st2" d="M133.3,51l0-3.4c0,0-3.6-1.5-5.1-2.2c-9.7-4.9-14.8-15.8-16.3-18c-1.5-2.2-9.5-14.4-21.9-17.2
				c1.9,1,10,4.3,17.8,15.4c8.2,11.6,11.8,22.7,11.8,23c0,0.4-0.6,2.4-1.5,2.7c-0.9,0.3,4,0.6,4,0.6L133.3,51z"/>
			<path class="st2" d="M119.2,49.8c0,0-6.7-18.7-13.2-26.6c2.7,2.9,6.1,6.3,14.1,25.3C119.6,49.2,119.2,49.8,119.2,49.8"/>
			<path class="st2" d="M133.2,46.6c0,0-1.2-0.5-1.8-0.7c-9.5-4.1-12.7-9.7-15.1-13.1C114,29.4,102.9,11,89.3,9.6l0.2,0.9
				c0.4,0.1,13.6,2.4,23.1,19.2c10.1,17.7,20.6,18.8,20.6,18.8L133.2,46.6z"/>
			<path class="st2" d="M69.5,54.2c0,0,4.6-0.3,6.8-0.3c7.2-0.1,36.8,0.3,39.5,0.4c1.4,0,17.5,0.3,17.5,0.3l0-4.7
				c0,0-1.1,0.1-1.4,0.1c-8.8,0.8-20.3,1.6-30.2,1.7C83.7,51.9,69.5,53,69.5,53V54.2z"/>
			<polygon class="st2" points="95.2,12.8 75.5,53.4 75.9,53.3 96.8,13.4 			"/>
			<polygon class="st2" points="99.4,15.6 81.2,53.2 81.5,53.2 100.9,16.3 			"/>
			<polygon class="st2" points="104,19.5 87.9,52.5 88.2,52.5 105.3,20.6 			"/>
			<polygon class="st2" points="108,24.7 94.6,52.4 94.9,52.4 109.3,26.1 			"/>
			<polygon class="st2" points="111.5,31.9 101.6,52.4 101.9,52.3 112.9,32.9 			"/>
			<polygon class="st2" points="115.1,38.7 108.2,52.9 108.5,52.6 116.3,39.8 			"/>
			<polygon class="st2" points="118,45.1 114.2,53.1 114.4,52.9 119.1,45.4 			"/>
		</g>
	</g>
</g>
</svg>
