<svg width="116" height="116" viewBox="0 0 116 116" fill="none" xmlns="http://www.w3.org/2000/svg">
<path d="M35.6812 43.6172C38.6272 43.6172 40.1412 44.1491 41.2869 44.5992L41.205 50.2458C39.732 49.7138 38.3817 49.3865 36.3768 49.3865C33.1444 49.3865 31.3031 50.8595 31.3031 56.2197C31.3031 61.5798 33.1444 63.0528 36.3768 63.0528C38.3817 63.0528 39.732 62.6846 41.205 62.1936L41.2869 67.8401C40.1412 68.3311 38.6272 68.8221 35.6812 68.8221C28.4389 68.8221 25.0019 65.0168 24.9609 56.2197C25.0019 47.4634 28.4389 43.6172 35.6812 43.6172Z" fill="white"/>
<path d="M80.2437 53.195L83.9263 44.1523H90.964L83.3534 58.8825L83.3943 68.2934H77.0931L77.1749 58.8825L69.5234 44.1523H76.5612L80.2437 53.195Z" fill="white"/>
<path d="M69.1922 44.1509V43.1689V42.9643V42.7597V41.8186V41.4094C69.1922 41.4094 68.7012 41.2049 68.4557 41.123C64.6504 39.4863 63.3411 37.2359 62.4 35.8447C61.4589 34.4535 56.958 27.0885 51.516 26.5156L51.5979 26.843C51.6388 26.843 51.9252 26.9248 52.3753 27.0475L44.1919 43.9463C43.7827 43.9872 43.5781 43.9872 43.5781 43.9872V44.1509V68.292H49.8794V44.3555C50.4113 44.3555 50.9841 44.3555 51.5979 44.3555V49.7156H57.2444V68.292H63.5457V49.7156H69.2332L69.1922 44.1509ZM44.3146 43.9054L52.9481 27.293C53.2346 27.4567 53.521 27.6204 53.8483 27.825L46.1559 43.7417C45.3785 43.8645 44.7647 43.9054 44.3146 43.9054ZM46.2377 43.7826L54.3802 28.2341C54.7076 28.4796 55.0758 28.7661 55.485 29.0934L48.4063 43.6599C47.6289 43.7417 46.8924 43.7826 46.2377 43.7826ZM48.57 43.6599L56.0169 29.5435C56.4261 29.9117 56.8353 30.3209 57.2854 30.8119L51.066 43.5781C50.1249 43.619 49.3065 43.6599 48.57 43.6599ZM51.1478 43.5781L57.6945 31.3438C58.0628 31.7939 58.431 32.2849 58.8402 32.7759C58.8811 32.8169 58.8811 32.8578 58.922 32.8578L53.7665 43.4553C52.8254 43.4962 51.9661 43.5371 51.1478 43.5781ZM56.4261 43.4553C55.5259 43.4553 54.6667 43.4962 53.8483 43.4962L59.3312 33.5124C59.6995 34.1262 60.0677 34.7809 60.436 35.4765L56.5898 43.4144C56.5488 43.4553 56.5079 43.4553 56.4261 43.4553ZM56.7125 43.4144L60.7633 36.213C61.1316 36.9495 61.4589 37.6451 61.7453 38.3407L59.3312 43.3326C58.472 43.4144 57.5718 43.4144 56.7125 43.4144ZM59.5358 43.3735L62.1136 39.1181C62.4409 39.8546 62.6864 40.5093 62.9319 41.0821L61.909 43.2507C61.0906 43.2916 60.3132 43.3326 59.5358 43.3735ZM63.2593 43.1689C62.8501 43.2098 62.4818 43.2098 62.0727 43.2507L63.1365 41.5322C63.382 42.1869 63.5457 42.596 63.5866 42.6779C63.4638 42.8416 63.382 43.0461 63.2593 43.1689Z" fill="white"/>
<path d="M40.7163 77.785H37.1974V80.9356H41.0846V81.5903H36.4609V73.6523H41.0846V74.307H37.1974V77.1303H40.7163V77.785Z" fill="white"/>
<path d="M45.995 76.6393V73.6523H46.7315V81.6312H46.3224L46.1587 81.1811C45.5859 81.5493 45.0539 81.713 44.4811 81.713C42.7626 81.713 42.3125 80.4855 42.3125 78.9306C42.3125 77.3758 42.7626 76.1483 44.4811 76.1483C44.9721 76.1892 45.545 76.312 45.995 76.6393ZM43.049 78.9716C43.049 80.0354 43.2127 81.0583 44.4811 81.0583C45.1767 81.0583 45.545 80.9356 45.9541 80.731V77.2121C45.545 77.0075 45.1358 76.8848 44.4811 76.8848C43.2127 76.8439 43.049 77.9077 43.049 78.9716Z" fill="white"/>
<path d="M48.8146 80.1587C48.8146 80.8543 49.2238 81.0589 49.8785 81.0589C50.5741 81.0589 50.9014 80.9361 51.3106 80.7315V76.3125H52.0471V81.6317H51.6379L51.4742 81.1816C50.9832 81.5499 50.4513 81.7545 49.8785 81.7545C48.61 81.7545 48.0781 81.1816 48.0781 80.1587V76.3125H48.8146V80.1587Z" fill="white"/>
<path d="M55.5708 76.1875C56.1027 76.1875 56.6755 76.2693 57.1665 76.4739V77.1286C56.7573 77.0058 56.3073 76.8831 55.5708 76.8831C54.2205 76.8831 54.0977 77.9469 54.0977 78.9699C54.0977 79.9928 54.2614 81.0566 55.5708 81.0566C56.3073 81.0566 56.7573 80.9339 57.1665 80.8111V81.4658C56.7164 81.6704 56.1027 81.7113 55.5708 81.7113C53.7704 81.7113 53.3203 80.4838 53.3203 78.9289C53.3203 77.3741 53.7704 76.1875 55.5708 76.1875Z" fill="white"/>
<path d="M60.1943 76.8422C59.4987 76.8422 59.0077 76.9649 58.5985 77.1286V76.4739C59.0486 76.2693 59.7033 76.1875 60.1943 76.1875C61.7901 76.1875 62.1992 76.924 62.1992 77.9879V81.6295H61.7901L61.6264 81.2203C61.1354 81.5886 60.5625 81.7522 60.0306 81.7522C58.6394 81.7522 58.1484 80.9339 58.1484 80.0337C58.1484 79.1335 58.6394 78.4789 60.0306 78.3561L61.4218 78.2743V77.9879C61.4627 77.1695 61.1763 76.8422 60.1943 76.8422ZM59.9897 78.9289C59.2532 79.0108 58.8849 79.379 58.8849 80.0337C58.8849 80.5247 59.0077 81.0976 60.0306 81.0976C60.6035 81.0976 60.9717 80.9339 61.4627 80.6884V78.8471L59.9897 78.9289Z" fill="white"/>
<path d="M66.3749 81.6724C66.2522 81.7133 66.0476 81.7133 65.8839 81.7133C64.9838 81.7133 64.1654 81.3042 64.1654 80.2812V76.8851H63.1016V76.5578L64.1654 76.2304V74.7983L64.9019 74.5938V76.3123H66.5386V76.8851H64.9019V80.1994C64.9019 80.8541 65.2702 81.0996 65.9248 81.0996C66.0476 81.0996 66.2113 81.0996 66.334 81.0587V81.6724H66.3749Z" fill="white"/>
<path d="M68.1335 74.1836C68.4199 74.1836 68.6654 74.4291 68.6654 74.7155C68.6654 75.0019 68.4199 75.2474 68.1335 75.2474C67.8471 75.2474 67.6016 75.0019 67.6016 74.7155C67.6016 74.3882 67.8061 74.1836 68.1335 74.1836ZM67.7652 80.5667V76.3113H68.5017V80.6485C68.5017 81.0168 68.6245 81.1395 68.9518 81.1395V81.7533C68.1744 81.7123 67.7652 81.385 67.7652 80.5667Z" fill="white"/>
<path d="M72.2661 81.7132C70.4657 81.7132 70.0156 80.5675 70.0156 78.9308C70.0156 77.2941 70.4248 76.1484 72.2661 76.1484C74.1073 76.1484 74.5165 77.2941 74.5165 78.9308C74.5165 80.5675 74.1073 81.7132 72.2661 81.7132ZM72.2661 76.844C70.8749 76.844 70.793 77.7442 70.793 78.9308C70.793 80.1174 70.8749 81.0176 72.2661 81.0176C73.6572 81.0176 73.7391 80.1174 73.7391 78.9308C73.7391 77.7442 73.6572 76.844 72.2661 76.844Z" fill="white"/>
<path d="M79.0137 77.7442C79.0137 77.0486 78.6045 76.844 77.9499 76.844C77.2543 76.844 76.9269 76.9668 76.5178 77.1714V81.5904H75.7812V76.2712H76.1904L76.3541 76.7213C76.8451 76.353 77.377 76.1484 77.9499 76.1484C79.2183 76.1484 79.7502 76.7213 79.7502 77.7442V81.5904H79.0137V77.7442Z" fill="white"/>
<path d="M44.6016 88.5448C44.6016 86.2944 45.3381 84.4531 47.7522 84.4531C48.8569 84.4531 49.5525 84.6577 50.0026 84.9032V85.6397C49.1843 85.3124 48.6114 85.1487 47.7522 85.1487C45.9927 85.1487 45.379 86.6627 45.379 88.5858C45.379 90.5089 45.9927 92.0228 47.7522 92.0228C48.3659 92.0228 49.1024 91.9819 49.4707 91.7773V89.0358H47.7931V88.3812H50.2072V92.2274C49.6753 92.4729 48.8569 92.6775 47.7522 92.6775C45.3381 92.6365 44.6016 90.7953 44.6016 88.5448Z" fill="white"/>
<path d="M54.5867 87.8477C54.423 87.8068 54.2184 87.7659 53.932 87.7659C53.1955 87.7659 52.7863 87.8887 52.3771 88.0932V92.5123H51.6406V87.1931H52.0498L52.2135 87.6431C52.7045 87.2749 53.3182 87.0703 53.932 87.0703C54.1775 87.0703 54.3821 87.1112 54.5867 87.1112V87.8477Z" fill="white"/>
<path d="M57.6567 92.635C55.8563 92.635 55.4062 91.4894 55.4062 89.8527C55.4062 88.216 55.8154 87.0703 57.6567 87.0703C59.498 87.0703 59.9071 88.216 59.9071 89.8527C59.9071 91.4894 59.498 92.635 57.6567 92.635ZM57.6567 87.7659C56.2655 87.7659 56.1837 88.6661 56.1837 89.8527C56.1837 91.0393 56.2655 91.9394 57.6567 91.9394C59.0479 91.9394 59.1297 91.0393 59.1297 89.8527C59.1706 88.6661 59.0479 87.7659 57.6567 87.7659Z" fill="white"/>
<path d="M61.8693 91.0415C61.8693 91.7371 62.2785 91.9417 62.9332 91.9417C63.6288 91.9417 63.9561 91.8189 64.3653 91.6144V87.1953H65.1018V92.5145H64.6926L64.5289 92.0644C64.0379 92.4327 63.506 92.6373 62.9332 92.6373C61.6647 92.6373 61.1328 92.0644 61.1328 91.0415V87.1953H61.8693V91.0415Z" fill="white"/>
<path d="M67.2287 92.187V95.174H66.4922V87.1951H66.9014L67.065 87.6452C67.6379 87.277 68.1698 87.1133 68.7426 87.1133C70.4611 87.1133 70.9112 88.3408 70.9112 89.8956C70.9112 91.4505 70.4611 92.678 68.7426 92.678C68.2516 92.6371 67.6788 92.4734 67.2287 92.187ZM70.1747 89.8547C70.1747 88.7909 70.0111 87.768 68.7426 87.768C68.047 87.768 67.6788 87.8907 67.2696 88.0953V91.6142C67.6788 91.8187 68.088 91.9415 68.7426 91.9415C70.0111 91.9415 70.1747 90.9186 70.1747 89.8547Z" fill="white"/>
<path d="M57.9361 113.423C88.285 113.423 112.888 88.8202 112.888 58.4712C112.888 28.1222 88.285 3.51953 57.9361 3.51953C27.5871 3.51953 2.98438 28.1222 2.98438 58.4712C2.98438 88.8202 27.5871 113.423 57.9361 113.423Z" stroke="white" stroke-width="2.8346" stroke-miterlimit="10"/>
</svg>
