<?xml version="1.0" encoding="UTF-8"?>
<svg id="Layer_1" xmlns="http://www.w3.org/2000/svg" version="1.1" viewBox="0 0 171.8 125.5">
  <!-- Generator: Adobe Illustrator 29.3.1, SVG Export Plug-In . SVG Version: 2.1.0 Build 151)  -->
  <defs>
    <style>
      .st0 {
        fill: #fff;
      }
    </style>
  </defs>
  <path class="st0" d="M144.6,42.8c-2.5,3.9-6.5,6.8-11.3,7.6,2.5,3.5,3.8,7.6,3.8,12s-1.2,8.6-3.1,11.7c.4,5,1.9,9.8,4.1,14.7,1-.8,2.1-1.7,3-2.6,6.1-6.4,9.6-14.9,9.6-23.7s-2.2-13.8-6.1-19.5Z"/>
  <path class="st0" d="M130.6,43.5c4.6,0,8.4-3.2,9.2-7.5.1-.6.2-1.2.2-1.9,0-5.2-4.2-9.4-9.4-9.4s-5.1,1.1-6.8,3c-1.6,1.7-2.6,4-2.6,6.5,0,5.2,4.2,9.4,9.4,9.4Z"/>
  <path class="st0" d="M115.2,28.1c-17.8.3-29,12.2-31.1,30.4-.8,6.9-4.1,14.1-7.7,17.9.4,4.7,2.1,10.2,4.4,14.8,1.2-.8,4.4-3.9,4.4-3.9,18.8-16.4,5.1-41.7,30.8-45.5-2.2-4-2.5-9.4-.8-13.7Z"/>
  <path class="st0" d="M80.4,102c-4-6.9-7-14.4-8.8-22.2-14.8,7.4-33.3-7.1-29.3-23.1,3.6-17,26.7-22,37.8-7.6,1.6-4.6,3.5-8.9,6.6-12.6-29.2-24.5-71.3,3.8-54.8,39.9,5.5,12.1,17.8,17.7,30.1,20,3.5.3,5.8,10,8.2,15.3,3.3-3.1,6.6-6.6,10.1-9.6Z"/>
  <g>
    <path class="st0" d="M41.5,90.6l-.3,1.5,2.1,1.4,1.2-.9.5.3-4.7,3.5-.5-.3,1.2-5.8.5.3ZM42.9,93.8l-1.8-1.2-.6,3,2.5-1.9Z"/>
    <path class="st0" d="M35.3,92.7c-.9-.7-.7-1.6-.2-2.3.5-.7,1.4-1,2.3-.3l1.2,1,1.4-1.7.4.3-3.5,4.3-1.7-1.4ZM37.2,90.6c-.6-.5-1.2-.2-1.6.2-.4.5-.5,1.1,0,1.6l1.3,1,1.5-1.8-1.2-1Z"/>
    <path class="st0" d="M31.4,89c-.8-.8-.5-1.7.2-2.3.6-.6,1.5-.8,2.3,0l1.1,1.2,1.6-1.5.4.4-4.1,3.7-1.5-1.6ZM33.5,87.1c-.5-.6-1.2-.4-1.6,0-.4.4-.7,1-.2,1.6l1.1,1.2,1.7-1.6-1.1-1.2Z"/>
    <path class="st0" d="M30.9,82.8l.9-2.5.4.5-.9,2.5.5.8,1.8-1.2.3.4-4.6,3.1-1.1-1.7c-.6-1-.2-1.8.5-2.3.7-.5,1.7-.6,2.3.3h0ZM29.4,85.7l2-1.3-.8-1.2c-.5-.7-1.1-.7-1.6-.3s-.8,1-.4,1.5l.9,1.3Z"/>
    <path class="st0" d="M28.9,80.9c-1.4.6-3.1,0-3.7-1.4s0-3.1,1.5-3.7c1.4-.6,3.1,0,3.7,1.4s0,3.1-1.5,3.7ZM26.9,76.3c-1.2.5-1.8,1.8-1.3,3,.5,1.2,1.9,1.6,3.1,1.1s1.8-1.8,1.3-3c-.5-1.2-1.9-1.7-3-1.2Z"/>
    <path class="st0" d="M22.8,72.8l-.2-.5h5.8c0-.1.2.4.2.4l-4.7,3.3-.2-.5,4-2.8h-4.9Z"/>
    <path class="st0" d="M27,69.3l-.6-2.6h.5c0-.1.7,3.1.7,3.1l-5.4,1.2-.7-3.1h.5c0-.1.6,2.5.6,2.5l2-.4-.5-2.2h.5c0-.1.5,2.1.5,2.1l1.9-.4Z"/>
    <path class="st0" d="M21.1,63.9c-.1-1.6,1-2.6,2.5-2.7,1.6-.1,2.8.7,2.9,2.2l.2,2.1-5.5.5-.2-2.1ZM26.1,63.5c-.1-1.3-1.1-1.8-2.4-1.7-1.3.1-2.2.9-2.1,2.1v1.6c.1,0,4.6-.4,4.6-.4v-1.6Z"/>
    <path class="st0" d="M26.5,53.9l.9-.4.4.9-1,.4c0,.2,0,.5,0,.7-.2,1.6-1.7,2.6-3.2,2.4-1.5-.2-2.7-1.6-2.4-3.2.2-1.5,1.7-2.6,3.2-2.4.9.1,1.7.7,2.1,1.5ZM25.7,55.4l-.8.3-.4-.9.9-.4c-.3-.4-.7-.6-1.2-.7-.9-.1-1.7.4-1.9,1.3-.1.9.5,1.6,1.4,1.8.9.1,1.7-.4,1.9-1.3h0Z"/>
    <path class="st0" d="M28.2,48.1l1-.2.2,1-1.1.2c0,.2,0,.5-.1.7-.5,1.5-2.1,2.3-3.6,1.8-1.5-.5-2.3-2.1-1.8-3.6.5-1.5,2.1-2.3,3.6-1.8.9.3,1.6,1,1.8,1.8ZM27.1,49.4l-.8.2-.2-1,1-.2c-.2-.4-.6-.7-1-.9-.9-.3-1.8,0-2.1,1-.3.9.2,1.7,1.1,2,.9.3,1.8,0,2.1-1h0Z"/>
    <path class="st0" d="M29.4,46.5l-5-2.3.5-1.1,5,2.3-.5,1.1Z"/>
    <path class="st0" d="M33.3,39.7l-1.5-.4-1.4,2.1.9,1.3-.3.5-3.4-4.8.3-.5,5.7,1.4-.3.5ZM30.1,41l1.2-1.8-3-.7,1.8,2.5Z"/>
    <path class="st0" d="M33.8,31l.4-.4,2.7,5.2-.3.4-3.5-1.8,2,3.4-.3.4-5.3-2.4.4-.4,4.5,2.1-2-3.5.3-.3,3.6,1.9-2.4-4.4Z"/>
    <path class="st0" d="M41.4,32l-1.3-.8-2,1.6.5,1.5-.4.3-1.7-5.6.4-.3,5,3.1-.4.3ZM37.9,32.3l1.7-1.3-2.6-1.6.9,2.9Z"/>
    <path class="st0" d="M43.2,28.4l2.4,1.1-.6.3-2.4-1.1-.8.5,1.1,1.9-.5.3-2.8-4.8,1.8-1c1-.6,1.8,0,2.2.6.4.7.4,1.7-.5,2.2h0ZM40.4,26.7l1.2,2,1.2-.7c.7-.4.8-1.1.4-1.6-.3-.6-.9-.8-1.5-.5l-1.3.8Z"/>
    <path class="st0" d="M46.4,23.1c1.4-.6,2.7.2,3.3,1.6.6,1.4.2,2.9-1.2,3.5l-1.9.8-2.1-5.1,1.9-.8ZM48.3,27.8c1.2-.5,1.4-1.6.9-2.8-.5-1.2-1.5-1.8-2.7-1.4l-1.4.6,1.7,4.2,1.4-.6Z"/>
    <path class="st0" d="M54.8,20.6c1.1-.2,1.7.5,1.9,1.3.2.8-.1,1.7-1.2,2l-1.6.3.4,2.1h-.5c0,.1-1.1-5.3-1.1-5.3l2.1-.4ZM55.3,23.4c.8-.2,1-.8.8-1.4-.1-.6-.5-1.1-1.3-.9l-1.6.3.5,2.3,1.6-.3Z"/>
    <path class="st0" d="M60.3,23.3l1.7,2h-.6s-1.7-2-1.7-2h-.9c0,0,.2,2.2.2,2.2h-.5s-.4-5.5-.4-5.5l2-.2c1.1,0,1.7.7,1.7,1.6,0,.8-.3,1.7-1.4,1.8h0ZM58.5,20.5l.2,2.4h1.4c.9-.2,1.1-.7,1.1-1.4s-.4-1.2-1.1-1.1h-1.5Z"/>
    <path class="st0" d="M62.9,22.5c.1-1.6,1.4-2.8,3-2.7,1.6.1,2.7,1.5,2.6,3.1-.1,1.6-1.4,2.7-3,2.6-1.6-.1-2.7-1.5-2.6-3ZM67.9,22.9c0-1.3-.8-2.4-2.1-2.5-1.3,0-2.3.9-2.4,2.2,0,1.3.8,2.4,2.1,2.5,1.3,0,2.3-.9,2.4-2.2Z"/>
    <path class="st0" d="M73,21h.5c0,.1-2.7,5.2-2.7,5.2h-.5c0-.1-.5-5.8-.5-5.8h.5c0,.1.4,5,.4,5l2.3-4.3Z"/>
    <path class="st0" d="M73.3,26.9l1.6-5.3.5.2-1.6,5.3-.5-.2Z"/>
    <path class="st0" d="M79.3,23.1c1.4.6,1.8,2,1.2,3.5-.6,1.4-1.9,2.2-3.3,1.6l-1.9-.8,2.1-5.1,1.9.8ZM77.4,27.7c1.2.5,2.2-.2,2.6-1.4.5-1.2.2-2.4-.9-2.8l-1.4-.6-1.7,4.2,1.4.6Z"/>
    <path class="st0" d="M81.1,29.5l2.4,1.3-.2.4-2.8-1.6,2.7-4.8,2.7,1.5-.2.4-2.3-1.3-1,1.8,2,1.1-.2.4-2-1.1-1,1.7Z"/>
    <path class="st0" d="M87.1,31.2v2.6s-.5-.4-.5-.4v-2.6s-.7-.5-.7-.5l-1.2,1.8-.4-.3,3.2-4.5,1.7,1.2c.9.7.8,1.6.3,2.3-.5.7-1.3,1.1-2.2.5h0ZM87.4,28l-1.4,1.9,1.1.8c.7.5,1.3.3,1.7-.3.4-.5.4-1.2-.2-1.6l-1.2-.9Z"/>
  </g>
  <path class="st0" d="M139.1,102c-4.2-7.2-7.6-15.4-9.1-24-8.6,6.6-22.7,4.3-30.1-3.5-1.2,4.6-3.7,9.2-6.3,12.4,11.1,10.5,24.2,7.5,28.7,10.3,2.2,1.8,4,7.4,6.7,14.4,2.9-3.1,6.9-6.6,10.1-9.6Z"/>
</svg>